<svg width="41" height="40" viewBox="0 0 41 40" fill="none" xmlns="http://www.w3.org/2000/svg">
<g clip-path="url(#clip0_4112_12817)">
<path opacity="0.2" d="M20.2501 23.75C14.9183 23.7583 9.67915 22.3739 5.06384 19.7373V32.5C5.06384 32.6642 5.09658 32.8267 5.16018 32.9784C5.22378 33.1301 5.31701 33.2679 5.43453 33.3839C5.55206 33.5 5.69158 33.5921 5.84513 33.6549C5.99869 33.7177 6.16326 33.75 6.32947 33.75H34.1732C34.3394 33.75 34.504 33.7177 34.6576 33.6549C34.8111 33.5921 34.9506 33.5 35.0682 33.3839C35.1857 33.2679 35.2789 33.1301 35.3425 32.9784C35.4061 32.8267 35.4388 32.6642 35.4388 32.5V19.7358C30.823 22.3734 25.5829 23.7583 20.2501 23.75V23.75Z" fill="#D14D72"/>
<path d="M34.1732 11.25H6.32947C5.63048 11.25 5.06384 11.8096 5.06384 12.5V32.5C5.06384 33.1904 5.63048 33.75 6.32947 33.75H34.1732C34.8722 33.75 35.4388 33.1904 35.4388 32.5V12.5C35.4388 11.8096 34.8722 11.25 34.1732 11.25Z" fill="#D14D72" stroke="#D14D72" stroke-width="2" stroke-linecap="round" stroke-linejoin="round"/>
<path d="M26.5781 11.25V8.75C26.5781 8.08696 26.3114 7.45107 25.8367 6.98223C25.362 6.51339 24.7182 6.25 24.0469 6.25H16.4531C15.7818 6.25 15.138 6.51339 14.6633 6.98223C14.1886 7.45107 13.9219 8.08696 13.9219 8.75V11.25" fill="#D14D72"/>
<path d="M26.5781 11.25V8.75C26.5781 8.08696 26.3114 7.45107 25.8367 6.98223C25.362 6.51339 24.7182 6.25 24.0469 6.25H16.4531C15.7818 6.25 15.138 6.51339 14.6633 6.98223C14.1886 7.45107 13.9219 8.08696 13.9219 8.75V11.25" stroke="#D14D72" stroke-width="2" stroke-linecap="round" stroke-linejoin="round"/>
<path d="M35.4388 19.7358C30.8229 22.3734 25.5828 23.7583 20.2501 23.75C14.9182 23.7583 9.67895 22.3739 5.0636 19.7372" fill="#D14D72"/>
<path d="M35.4388 19.7358C30.8229 22.3734 25.5828 23.7583 20.2501 23.75C14.9182 23.7583 9.67895 22.3739 5.0636 19.7372" stroke="#D14D72" stroke-width="2" stroke-linecap="round" stroke-linejoin="round"/>
<path d="M18.3516 18.75H22.1484" stroke="#D14D72" stroke-width="2" stroke-linecap="round" stroke-linejoin="round"/>
</g>
<defs>
<clipPath id="clip0_4112_12817">
<rect width="40.5" height="40" fill="white"/>
</clipPath>
</defs>
</svg>
