<svg width="41" height="40" viewBox="0 0 41 40" fill="none" xmlns="http://www.w3.org/2000/svg">
<g clip-path="url(#clip0_4112_12829)">
<path opacity="0.2" d="M23.1656 33.7473V6.24731C23.1656 5.91579 23.034 5.59785 22.7995 5.36343C22.5651 5.12901 22.2472 4.99731 21.9156 4.99731H6.91565C6.58413 4.99731 6.26619 5.12901 6.03177 5.36343C5.79735 5.59785 5.66565 5.91579 5.66565 6.24731V33.7473" fill="white"/>
<path d="M3.16663 33.7474H38.1666" stroke="white" stroke-width="2" stroke-linecap="round" stroke-linejoin="round"/>
<path d="M23.1656 33.7473V6.24731C23.1656 5.91579 23.034 5.59785 22.7995 5.36343C22.5651 5.12901 22.2472 4.99731 21.9156 4.99731H6.91565C6.58413 4.99731 6.26619 5.12901 6.03177 5.36343C5.79735 5.59785 5.66565 5.91579 5.66565 6.24731V33.7473" stroke="white" stroke-width="2" stroke-linecap="round" stroke-linejoin="round"/>
<path d="M35.6657 33.7473V16.2473C35.6657 15.9158 35.534 15.5979 35.2995 15.3634C35.0651 15.129 34.7472 14.9973 34.4157 14.9973H23.1656" stroke="white" stroke-width="2" stroke-linecap="round" stroke-linejoin="round"/>
<path d="M10.6656 11.2473H15.6657" stroke="white" stroke-width="2" stroke-linecap="round" stroke-linejoin="round"/>
<path d="M13.1656 21.2474H18.1656" stroke="white" stroke-width="2" stroke-linecap="round" stroke-linejoin="round"/>
<path d="M10.6656 27.4974H15.6657" stroke="white" stroke-width="2" stroke-linecap="round" stroke-linejoin="round"/>
<path d="M28.1656 27.4974H30.6656" stroke="white" stroke-width="2" stroke-linecap="round" stroke-linejoin="round"/>
<path d="M28.1656 21.2474H30.6656" stroke="white" stroke-width="2" stroke-linecap="round" stroke-linejoin="round"/>
</g>
<defs>
<clipPath id="clip0_4112_12829">
<rect width="40" height="40" fill="white" transform="translate(0.666626)"/>
</clipPath>
</defs>
</svg>
