<svg width="20" height="20" viewBox="0 0 20 20" fill="none" xmlns="http://www.w3.org/2000/svg">
<g clip-path="url(#clip0_4402_1244)">
<path d="M19.9802 5.88005C19.9333 4.81738 19.7615 4.0868 19.5153 3.45374C19.2614 2.78176 18.8707 2.18014 18.3588 1.68002C17.8586 1.1721 17.2531 0.777435 16.5889 0.527447C15.9522 0.281274 15.2254 0.109427 14.1627 0.0625732C13.0921 0.0117516 12.7522 0 10.0369 0C7.32148 0 6.9816 0.0117516 5.91496 0.0586052C4.85228 0.105459 4.1217 0.277459 3.4888 0.523479C2.81667 0.777435 2.21505 1.16814 1.71493 1.68002C1.20701 2.18014 0.812498 2.78573 0.562358 3.44992C0.316186 4.0868 0.144339 4.81341 0.0974853 5.87609C0.0466636 6.9467 0.0349121 7.28658 0.0349121 10.002C0.0349121 12.7173 0.0466636 13.0572 0.0935172 14.1239C0.140371 15.1865 0.312371 15.9171 0.558543 16.5502C0.812498 17.2221 1.20701 17.8238 1.71493 18.3239C2.21505 18.8318 2.82064 19.2265 3.48483 19.4765C4.1217 19.7226 4.84831 19.8945 5.91114 19.9413C6.97763 19.9883 7.31767 19.9999 10.033 19.9999C12.7484 19.9999 13.0883 19.9883 14.1549 19.9413C15.2176 19.8945 15.9482 19.7226 16.5811 19.4765C17.9252 18.9568 18.9879 17.8941 19.5075 16.5502C19.7535 15.9133 19.9255 15.1865 19.9724 14.1239C20.0193 13.0572 20.031 12.7173 20.031 10.002C20.031 7.28658 20.027 6.9467 19.9802 5.88005ZM18.1791 14.0457C18.1361 15.0225 17.972 15.5499 17.8353 15.9015C17.4992 16.7728 16.8077 17.4643 15.9364 17.8004C15.5848 17.9372 15.0535 18.1012 14.0806 18.1441C13.0257 18.1911 12.7093 18.2027 10.0408 18.2027C7.3723 18.2027 7.05196 18.1911 6.00088 18.1441C5.02413 18.1012 4.49668 17.9372 4.14505 17.8004C3.71147 17.6402 3.3168 17.3862 2.99645 17.0541C2.66436 16.7298 2.4104 16.3391 2.25015 15.9055C2.11341 15.5539 1.94935 15.0225 1.90646 14.0497C1.85945 12.9948 1.84786 12.6783 1.84786 10.0097C1.84786 7.34122 1.85945 7.02087 1.90646 5.96995C1.94935 4.99319 2.11341 4.46575 2.25015 4.11412C2.4104 3.68038 2.66436 3.28586 3.00042 2.96536C3.32458 2.63327 3.71528 2.37931 4.14902 2.21921C4.50065 2.08247 5.03207 1.9184 6.00485 1.87537C7.05974 1.82851 7.37627 1.81676 10.0446 1.81676C12.7171 1.81676 13.0335 1.82851 14.0846 1.87537C15.0613 1.9184 15.5888 2.08247 15.9404 2.21921C16.374 2.37931 16.7687 2.63327 17.089 2.96536C17.4211 3.28967 17.6751 3.68038 17.8353 4.11412C17.972 4.46575 18.1361 4.99701 18.1791 5.96995C18.226 7.02484 18.2378 7.34122 18.2378 10.0097C18.2378 12.6783 18.226 12.9908 18.1791 14.0457Z" fill="#00ADB5"/>
<path d="M10.0369 4.86426C7.20049 4.86426 4.89917 7.16543 4.89917 10.002C4.89917 12.8385 7.20049 15.1397 10.0369 15.1397C12.8734 15.1397 15.1746 12.8385 15.1746 10.002C15.1746 7.16543 12.8734 4.86426 10.0369 4.86426ZM10.0369 13.3347C8.19678 13.3347 6.70418 11.8422 6.70418 10.002C6.70418 8.16172 8.19678 6.66927 10.0369 6.66927C11.8772 6.66927 13.3696 8.16172 13.3696 10.002C13.3696 11.8422 11.8772 13.3347 10.0369 13.3347Z" fill="#00ADB5"/>
<path d="M16.5772 4.66085C16.5772 5.32321 16.0402 5.86028 15.3777 5.86028C14.7153 5.86028 14.1782 5.32321 14.1782 4.66085C14.1782 3.99834 14.7153 3.46143 15.3777 3.46143C16.0402 3.46143 16.5772 3.99834 16.5772 4.66085Z" fill="#00ADB5"/>
</g>
<defs>
<clipPath id="clip0_4402_1244">
<rect width="20" height="20" fill="white" transform="translate(-0.000244141)"/>
</clipPath>
</defs>
</svg>
