<svg width="20" height="20" viewBox="0 0 20 20" fill="none" xmlns="http://www.w3.org/2000/svg">
<path fill-rule="evenodd" clip-rule="evenodd" d="M20 10C20 4.47715 15.5228 0 10 0C4.47715 0 0 4.47715 0 10C0 15.5228 4.47715 20 10 20C15.5228 20 20 15.5228 20 10ZM14.8774 5.52019C15.1424 6.00475 14.9644 6.61238 14.4798 6.87737C13.1085 7.62733 11.8206 9.19734 10.8373 10.703C10.3579 11.4371 9.97332 12.1205 9.70882 12.6202C9.57683 12.8695 9.47541 13.0719 9.40771 13.2103C9.37387 13.2795 9.3485 13.3326 9.33199 13.3676L9.31392 13.4061L9.30998 13.4147L9.30947 13.4158C9.15497 13.7535 8.82593 13.978 8.45511 13.9985C8.08419 14.019 7.73249 13.8321 7.5418 13.5133C7.23109 12.9939 6.73735 12.5196 6.2798 12.1579C6.05747 11.9821 5.85735 11.8435 5.71454 11.75C5.64341 11.7034 5.58726 11.6685 5.55061 11.6462C5.5323 11.635 5.51892 11.6271 5.51105 11.6225L5.50425 11.6185C5.02476 11.3448 4.8578 10.7342 5.13135 10.2546C5.40496 9.77484 6.01567 9.60773 6.49542 9.88135L6.49713 9.88232L6.49943 9.88364L6.50578 9.8873L6.52528 9.8987C6.54123 9.90808 6.56301 9.92105 6.59002 9.93748C6.64399 9.97031 6.71909 10.0171 6.81046 10.077C6.99265 10.1963 7.24253 10.3695 7.5202 10.589C7.7324 10.7568 7.96967 10.9585 8.20922 11.1909C8.46606 10.7295 8.78699 10.1848 9.16273 9.60946C10.1794 8.05266 11.6915 6.12267 13.5202 5.12263C14.0047 4.85764 14.6124 5.03563 14.8774 5.52019Z" fill="white"/>
</svg>
