<svg width="20" height="20" viewBox="0 0 20 20" fill="none" xmlns="http://www.w3.org/2000/svg">
<g clip-path="url(#clip0_4402_1241)">
<path d="M19.5877 5.19897C19.3571 4.34219 18.6816 3.66684 17.825 3.43612C16.2599 3.00781 9.99956 3.00781 9.99956 3.00781C9.99956 3.00781 3.73936 3.00781 2.17428 3.4198C1.33413 3.65036 0.642148 4.34234 0.411589 5.19897C-0.000244141 6.7639 -0.000244141 10.0094 -0.000244141 10.0094C-0.000244141 10.0094 -0.000244141 13.2713 0.411589 14.8199C0.642301 15.6765 1.31765 16.352 2.17443 16.5827C3.75584 17.011 9.99971 17.011 9.99971 17.011C9.99971 17.011 16.2599 17.011 17.825 16.5991C18.6818 16.3685 19.3571 15.693 19.5878 14.8364C19.9997 13.2713 19.9997 10.0259 19.9997 10.0259C19.9997 10.0259 20.0162 6.7639 19.5877 5.19897Z" fill="#00ADB5"/>
<path d="M8.00635 13.0074L13.2122 10.0091L8.00635 7.01074V13.0074Z" fill="#222831"/>
</g>
<defs>
<clipPath id="clip0_4402_1241">
<rect width="20" height="20" fill="white" transform="translate(-0.000244141)"/>
</clipPath>
</defs>
</svg>
