<svg width="32" height="32" viewBox="0 0 32 32" fill="none" xmlns="http://www.w3.org/2000/svg">
<g clip-path="url(#clip0_1647_32072)">
<path opacity="0.2" d="M26.7207 5.37337C26.8698 5.32991 27.0269 5.32173 27.1796 5.3495C27.3324 5.37728 27.4765 5.44023 27.6007 5.53337C27.7249 5.62652 27.8257 5.7473 27.8952 5.88616C27.9646 6.02502 28.0007 6.17813 28.0007 6.33337V23.6667C28.0007 23.8219 27.9646 23.9751 27.8952 24.1139C27.8257 24.2528 27.7249 24.3736 27.6007 24.4667C27.4765 24.5598 27.3324 24.6228 27.1796 24.6506C27.0269 24.6783 26.8698 24.6702 26.7207 24.6267L15 21.2082V8.79191L26.7207 5.37337Z" fill="#D14D72"/>
<path d="M28.0007 6.33337V23.6667C28.0007 23.8219 27.9646 23.9751 27.8952 24.1139C27.8257 24.2528 27.7249 24.3736 27.6007 24.4667C27.4765 24.5598 27.3324 24.6228 27.1796 24.6506C27.0269 24.6783 26.8698 24.6702 26.7207 24.6267L4.72073 18.21C4.51302 18.1495 4.33055 18.0231 4.20073 17.85C4.07091 17.6769 4.00073 17.4664 4.00073 17.25V12.75C4.00073 12.5337 4.07091 12.3231 4.20073 12.15C4.33055 11.9769 4.51302 11.8506 4.72073 11.79L26.7207 5.37337C26.8698 5.32991 27.0269 5.32173 27.1796 5.3495C27.3324 5.37728 27.4765 5.44023 27.6007 5.53337C27.7249 5.62652 27.8257 5.7473 27.8952 5.88616C27.9646 6.02502 28.0007 6.17813 28.0007 6.33337Z" fill="#D14D72" stroke="#D14D72" stroke-width="2" stroke-linecap="round" stroke-linejoin="round"/>
<path d="M9 19.4581V24C9 24.2652 9.10536 24.5196 9.29289 24.7071C9.48043 24.8946 9.73478 25 10 25H14C14.2652 25 14.5196 24.8946 14.7071 24.7071C14.8946 24.5196 15 24.2652 15 24V8.79187" fill="#D14D72"/>
<path d="M9 19.4581V24C9 24.2652 9.10536 24.5196 9.29289 24.7071C9.48043 24.8946 9.73478 25 10 25H14C14.2652 25 14.5196 24.8946 14.7071 24.7071C14.8946 24.5196 15 24.2652 15 24V8.79187" stroke="#D14D72" stroke-width="2" stroke-linecap="round" stroke-linejoin="round"/>
</g>
<defs>
<clipPath id="clip0_1647_32072">
<rect width="32" height="32" fill="white" transform="matrix(-1 0 0 1 32 0)"/>
</clipPath>
</defs>
</svg>
