<svg width="41" height="40" viewBox="0 0 41 40" fill="none" xmlns="http://www.w3.org/2000/svg">
<g clip-path="url(#clip0_4112_12845)">
<path opacity="0.2" d="M14.0834 25C18.5707 25 22.2084 21.3623 22.2084 16.875C22.2084 12.3877 18.5707 8.75 14.0834 8.75C9.59606 8.75 5.95837 12.3877 5.95837 16.875C5.95837 21.3623 9.59606 25 14.0834 25Z" fill="#D14D72"/>
<path d="M14.0834 25C18.5707 25 22.2084 21.3623 22.2084 16.875C22.2084 12.3877 18.5707 8.75 14.0834 8.75C9.59606 8.75 5.95837 12.3877 5.95837 16.875C5.95837 21.3623 9.59606 25 14.0834 25Z" fill="#D14D72" stroke="#D14D72" stroke-width="2" stroke-miterlimit="10"/>
<path d="M24.6166 9.05256C25.7341 8.7377 26.9061 8.66597 28.0537 8.84221C29.2013 9.01845 30.2978 9.43856 31.2694 10.0743C32.2409 10.7099 33.065 11.5465 33.686 12.5274C34.307 13.5084 34.7107 14.6111 34.8696 15.7612C35.0286 16.9113 34.9393 18.0821 34.6077 19.1948C34.2761 20.3075 33.7099 21.3362 32.9473 22.2116C32.1846 23.0871 31.2432 23.7889 30.1865 24.2699C29.1298 24.7508 27.9822 24.9998 26.8212 24.9999" fill="#D14D72"/>
<path d="M24.6166 9.05256C25.7341 8.7377 26.9061 8.66597 28.0537 8.84221C29.2013 9.01845 30.2978 9.43856 31.2694 10.0743C32.2409 10.7099 33.065 11.5465 33.686 12.5274C34.307 13.5084 34.7107 14.6111 34.8696 15.7612C35.0286 16.9113 34.9393 18.0821 34.6077 19.1948C34.2761 20.3075 33.7099 21.3362 32.9473 22.2116C32.1846 23.0871 31.2432 23.7889 30.1865 24.2699C29.1298 24.7508 27.9822 24.9998 26.8212 24.9999" stroke="#D14D72" stroke-width="2" stroke-linecap="round" stroke-linejoin="round"/>
<path d="M2.83252 30.8432C4.10148 29.0382 5.7861 27.565 7.74416 26.548C9.70222 25.531 11.8762 25.0001 14.0827 25C16.2891 24.9999 18.4631 25.5307 20.4213 26.5476C22.3794 27.5644 24.0641 29.0375 25.3332 30.8424" fill="#D14D72"/>
<path d="M2.83252 30.8432C4.10148 29.0382 5.7861 27.565 7.74416 26.548C9.70222 25.531 11.8762 25.0001 14.0827 25C16.2891 24.9999 18.4631 25.5307 20.4213 26.5476C22.3794 27.5644 24.0641 29.0375 25.3332 30.8424" stroke="#D14D72" stroke-width="2" stroke-linecap="round" stroke-linejoin="round"/>
<path d="M26.8212 25C29.0278 24.9984 31.2023 25.5285 33.1606 26.5455C35.1189 27.5625 36.8033 29.0364 38.0712 30.8424" fill="#D14D72"/>
<path d="M26.8212 25C29.0278 24.9984 31.2023 25.5285 33.1606 26.5455C35.1189 27.5625 36.8033 29.0364 38.0712 30.8424" stroke="#D14D72" stroke-width="2" stroke-linecap="round" stroke-linejoin="round"/>
</g>
<defs>
<clipPath id="clip0_4112_12845">
<rect width="40" height="40" fill="white" transform="translate(0.333252)"/>
</clipPath>
</defs>
</svg>
