<svg width="41" height="40" viewBox="0 0 41 40" fill="none" xmlns="http://www.w3.org/2000/svg">
<g clip-path="url(#clip0_4112_12845)">
<path opacity="0.2" d="M13.922 25C18.4654 25 22.1486 21.3623 22.1486 16.875C22.1486 12.3877 18.4654 8.75 13.922 8.75C9.37859 8.75 5.69543 12.3877 5.69543 16.875C5.69543 21.3623 9.37859 25 13.922 25Z" fill="#D14D72"/>
<path d="M13.922 25C18.4654 25 22.1486 21.3623 22.1486 16.875C22.1486 12.3877 18.4654 8.75 13.922 8.75C9.37859 8.75 5.69543 12.3877 5.69543 16.875C5.69543 21.3623 9.37859 25 13.922 25Z" fill="#D14D72" stroke="#D14D72" stroke-width="2" stroke-miterlimit="10"/>
<path d="M24.5869 9.05256C25.7184 8.7377 26.9051 8.66597 28.067 8.84221C29.229 9.01845 30.3392 9.43856 31.3229 10.0743C32.3066 10.7099 33.1409 11.5465 33.7697 12.5274C34.3985 13.5084 34.8072 14.6111 34.9681 15.7612C35.1291 16.9113 35.0387 18.0821 34.703 19.1948C34.3672 20.3075 33.7939 21.3362 33.0218 22.2116C32.2496 23.0871 31.2964 23.7889 30.2265 24.2699C29.1565 24.7508 27.9947 24.9998 26.8191 24.9999" fill="#D14D72"/>
<path d="M24.5869 9.05256C25.7184 8.7377 26.9051 8.66597 28.067 8.84221C29.229 9.01845 30.3392 9.43856 31.3229 10.0743C32.3066 10.7099 33.1409 11.5465 33.7697 12.5274C34.3985 13.5084 34.8072 14.6111 34.9681 15.7612C35.1291 16.9113 35.0387 18.0821 34.703 19.1948C34.3672 20.3075 33.7939 21.3362 33.0218 22.2116C32.2496 23.0871 31.2964 23.7889 30.2265 24.2699C29.1565 24.7508 27.9947 24.9998 26.8191 24.9999" stroke="#D14D72" stroke-width="2" stroke-linecap="round" stroke-linejoin="round"/>
<path d="M2.53052 30.8432C3.81534 29.0382 5.52102 27.565 7.50355 26.548C9.48609 25.531 11.6873 25.0001 13.9213 25C16.1553 24.9999 18.3565 25.5307 20.3391 26.5476C22.3217 27.5644 24.0275 29.0375 25.3125 30.8424" fill="#D14D72"/>
<path d="M2.53052 30.8432C3.81534 29.0382 5.52102 27.565 7.50355 26.548C9.48609 25.531 11.6873 25.0001 13.9213 25C16.1553 24.9999 18.3565 25.5307 20.3391 26.5476C22.3217 27.5644 24.0275 29.0375 25.3125 30.8424" stroke="#D14D72" stroke-width="2" stroke-linecap="round" stroke-linejoin="round"/>
<path d="M26.819 25C29.0532 24.9984 31.2549 25.5285 33.2376 26.5455C35.2204 27.5625 36.9259 29.0364 38.2096 30.8424" fill="#D14D72"/>
<path d="M26.819 25C29.0532 24.9984 31.2549 25.5285 33.2376 26.5455C35.2204 27.5625 36.9259 29.0364 38.2096 30.8424" stroke="#D14D72" stroke-width="2" stroke-linecap="round" stroke-linejoin="round"/>
</g>
<defs>
<clipPath id="clip0_4112_12845">
<rect width="40.5" height="40" fill="white"/>
</clipPath>
</defs>
</svg>
